<?xml version="1.0" encoding="UTF-8" standalone="no"?>
<svg
   xmlns:dc="http://purl.org/dc/elements/1.1/"
   xmlns:cc="http://creativecommons.org/ns#"
   xmlns:rdf="http://www.w3.org/1999/02/22-rdf-syntax-ns#"
   xmlns:svg="http://www.w3.org/2000/svg"
   xmlns="http://www.w3.org/2000/svg"
   xmlns:sodipodi="http://sodipodi.sourceforge.net/DTD/sodipodi-0.dtd"
   xmlns:inkscape="http://www.inkscape.org/namespaces/inkscape"
   inkscape:version="1.0 (4035a4fb49, 2020-05-01)"
   sodipodi:docname="subaru_logo.svg"
   viewBox="0 0 595.27557 841.88977"
   id="svg30"
   height="841.88977"
   width="595.27557"
   version="1.1">
  <metadata
     id="metadata36">
    <rdf:RDF>
      <cc:Work
         rdf:about="">
        <dc:format>image/svg+xml</dc:format>
        <dc:type
           rdf:resource="http://purl.org/dc/dcmitype/StillImage" />
        <dc:title></dc:title>
      </cc:Work>
    </rdf:RDF>
  </metadata>
  <defs
     id="defs34" />
  <sodipodi:namedview
     inkscape:current-layer="svg30"
     inkscape:window-maximized="1"
     inkscape:window-y="0"
     inkscape:window-x="0"
     inkscape:cy="420.94489"
     inkscape:cx="297.63779"
     inkscape:zoom="0.87303591"
     showgrid="false"
     id="namedview32"
     inkscape:window-height="1163"
     inkscape:window-width="1920"
     inkscape:pageshadow="2"
     inkscape:pageopacity="0"
     guidetolerance="10"
     gridtolerance="10"
     objecttolerance="10"
     borderopacity="1"
     bordercolor="#666666"
     pagecolor="#ffffff" />
  <path
     id="path28"
     style="fill:#1b1918;fill-rule:evenodd"
     d="m 297.6378,465.6442 c 40.3053,0 77.8382,-13.2234 97.9514,-34.509 9.9656,-10.5471 15.2328,-22.6583 15.2328,-35.0265 4e-4,-12.3682 -5.2672,-24.4806 -15.2328,-35.0273 -20.1132,-21.2856 -57.6461,-34.509 -97.9514,-34.509 -29.9287,-4e-4 -58.1147,7.0418 -79.365,19.8281 -21.8086,13.1225 -33.8196,30.7755 -33.8196,49.7082 0,12.3682 5.2676,24.4794 15.2333,35.0265 20.1131,21.2852 57.646,34.509 97.9513,34.509 z m -106.909,-69.5355 c 0,-10.5692 4.6318,-21.0571 13.3952,-30.3311 18.9793,-20.0864 54.8119,-32.5637 93.5138,-32.5637 38.702,-4e-4 74.5346,12.4777 93.5139,32.5637 8.7634,9.2736 13.3951,19.7623 13.3951,30.3311 4e-4,34.6795 -47.9593,62.8939 -106.909,62.8939 -38.7019,0 -74.5345,-12.4776 -93.5138,-32.5636 -8.7634,-9.2736 -13.3952,-19.7619 -13.3952,-30.3303 z m 66.6287,-52.6864 c -0.3378,-1.0361 -0.9005,-1.0395 -1.2505,-0.008 l -9.3956,27.6857 c -0.35,1.0304 -1.4708,2.0283 -2.4911,2.2157 l -46.9117,8.6162 c -1.0202,0.1869 -1.019,0.4873 0.002,0.6656 l 46.9068,8.2051 c 1.0214,0.1787 2.1509,1.1662 2.5099,2.1945 l 9.3629,26.8114 c 0.359,1.0274 0.9364,1.024 1.2827,-0.009 l 8.9904,-26.795 c 0.3459,-1.0326 1.4647,-2.0253 2.4862,-2.2071 l 46.0713,-8.1947 c 1.0211,-0.1822 1.0219,-0.486 0.002,-0.6764 l -46.0763,-8.6058 c -1.0194,-0.1904 -2.1304,-1.1936 -2.4678,-2.2296 z m 61.0993,42.7815 c -0.1501,-0.4605 -0.4003,-0.4622 -0.5561,-0.003 l -4.1799,12.3176 c -0.1558,0.4591 -0.6547,0.9027 -1.109,0.9862 l -20.8713,3.833 c -0.4539,0.0839 -0.4535,0.2172 0.001,0.2968 l 20.8693,3.6504 c 0.4543,0.0791 0.9568,0.5188 1.1167,0.9763 l 4.1656,11.9285 c 0.1599,0.457 0.4167,0.4557 0.5705,-0.004 l 3.9999,-11.9208 c 0.1542,-0.46 0.6523,-0.9014 1.1066,-0.9823 l 20.4979,-3.646 c 0.4547,-0.0809 0.4547,-0.2164 0.001,-0.3008 l -20.5005,-3.829 c -0.453,-0.0844 -0.9478,-0.531 -1.0979,-0.9919 z m 56.479,0 c -0.15,-0.4605 -0.4007,-0.4622 -0.5565,-0.003 l -4.1803,12.3176 c -0.1558,0.4591 -0.6547,0.9027 -1.1082,0.9862 l -20.8721,3.833 c -0.4539,0.0839 -0.4535,0.2172 0.001,0.2968 l 20.8697,3.6504 c 0.4547,0.0791 0.9569,0.5188 1.1167,0.9763 l 4.166,11.9285 c 0.1599,0.457 0.4163,0.4557 0.5701,-0.004 l 4.0004,-11.9208 c 0.1541,-0.46 0.6518,-0.9014 1.1061,-0.9823 l 20.4984,-3.646 c 0.4543,-0.0809 0.4543,-0.2164 8e-4,-0.3008 l -20.5005,-3.829 c -0.4534,-0.0844 -0.9478,-0.531 -1.0979,-0.9919 z m -16.63,-35.1988 c -0.1501,-0.4613 -0.4008,-0.4626 -0.5562,-0.003 l -4.1803,12.3175 c -0.1558,0.4583 -0.6542,0.9023 -1.1085,0.9859 l -20.8714,3.8338 c -0.4543,0.0826 -0.4539,0.2163 5e-4,0.296 l 20.87,3.6507 c 0.4547,0.0792 0.9569,0.5184 1.1164,0.9759 l 4.166,11.9289 c 0.1599,0.4579 0.4162,0.4562 0.5704,-0.003 l 4.0004,-11.9221 c 0.1538,-0.4587 0.6514,-0.901 1.1061,-0.9819 l 20.4984,-3.646 c 0.4539,-0.0805 0.4543,-0.2159 8e-4,-0.3007 l -20.5,-3.8286 c -0.4543,-0.0853 -0.9487,-0.5315 -1.0988,-0.9924 z m -20.2363,62.652 c -0.1501,-0.4609 -0.4012,-0.4626 -0.5565,-0.004 l -4.1804,12.3172 c -0.1558,0.4583 -0.6546,0.9027 -1.1085,0.9858 l -20.8718,3.8338 c -0.4543,0.0831 -0.4534,0.2164 9e-4,0.296 l 20.8696,3.6503 c 0.4552,0.0801 0.9573,0.5193 1.1168,0.9767 l 4.1664,11.929 c 0.1595,0.4579 0.4159,0.4557 0.57,-0.004 l 4.0004,-11.922 c 0.1538,-0.4592 0.6514,-0.901 1.1057,-0.9819 l 20.4988,-3.6464 c 0.4543,-0.0805 0.4543,-0.216 8e-4,-0.3008 l -20.5004,-3.8286 c -0.4539,-0.0853 -0.9483,-0.531 -1.0983,-0.9919 z m -58.221,5.4342 c -0.1505,-0.4614 -0.4007,-0.4622 -0.5561,-0.004 l -4.1804,12.3176 c -0.1557,0.4583 -0.6546,0.9023 -1.1085,0.9858 l -20.8721,3.8334 c -0.4535,0.0835 -0.4531,0.2168 0.001,0.2964 l 20.8697,3.6503 c 0.4547,0.0796 0.9572,0.5189 1.1171,0.9763 l 4.1656,11.929 c 0.1595,0.4574 0.4163,0.4561 0.5704,-0.004 l 4,-11.922 c 0.1542,-0.4592 0.6518,-0.901 1.1061,-0.982 l 20.498,-3.6459 c 0.4543,-0.0814 0.4547,-0.216 8e-4,-0.3008 l -20.5,-3.829 c -0.4535,-0.0853 -0.9474,-0.531 -1.0979,-0.9919 z m -93.4877,86.1381 h 8.6371 c 0.0392,3.1709 1.2447,3.4175 3.735,3.4175 l 10.5822,-4e-4 c 1.8283,0 3.6958,-0.2051 3.6958,-2.5109 0,-2.5948 -1.0113,-2.7588 -12.1382,-2.7588 -12.9944,-4e-4 -14.4726,-1.6471 -14.4726,-8.9758 0,-5.3939 0.4665,-9.5523 11.36,-9.5523 l 12.0609,-4e-4 c 9.9594,0 10.893,3.5824 10.893,8.8114 v 0.9468 h -8.6367 c 0,-2.1823 -0.2335,-3.0877 -4.202,-3.0877 h -9.5706 c -1.9452,0 -3.268,0.6998 -3.268,2.3058 4e-4,2.5939 1.0505,2.6761 10.3099,2.635 13.423,-0.0411 16.5348,0.8236 16.5348,9.5112 0,8.0289 -2.5675,9.3466 -14.0449,9.3466 h -10.4653 c -7.8589,0 -11.0104,-1.5648 -11.0104,-8.0289 z m 37.3174,-20.0518 h 8.637 v 17.2104 c 0,3.7883 1.2836,5.2709 4.824,5.2709 l 8.5593,-4e-4 c 3.5404,0 4.8244,-1.4818 4.8244,-5.2701 v -17.2108 h 8.6366 v 19.1868 c 0,7.4114 -3.618,10.953 -11.555,10.953 h -12.3717 c -7.9366,0 -11.5546,-3.5412 -11.5546,-10.9526 z m 37.1526,0 h 24.8602 c 6.8865,0 10.2323,1.9764 10.2323,7.8234 0,5.1053 -1.7506,6.0937 -4.1628,6.8346 v 0.1233 c 3.7743,0.4942 5.174,2.6355 5.174,7.1236 4e-4,6.5463 -3.6569,7.9052 -8.5978,7.9052 h -27.5059 z m 8.637,22.6454 h 15.4843 c 1.8675,0 3.1123,-0.4523 3.1123,-2.1816 0,-2.0175 -1.2448,-2.4706 -3.1123,-2.4706 h -15.4843 z m 0,-10.8285 h 15.2897 c 1.5952,0 2.5287,-0.6171 2.5287,-2.3053 0,-1.7293 -0.9335,-2.3468 -2.5287,-2.3468 h -15.2897 z m 41.3174,-11.8169 h 11.2443 l 15.4839,29.8101 h -9.6095 l -2.6849,-5.2701 h -17.5072 l -2.5287,5.2701 h -9.6475 z m 0.1558,18.117 h 11.0488 l -5.6021,-11.1998 z m 27.8923,-18.117 h 26.0666 c 6.6526,0 8.4424,3.5002 8.4424,8.8529 l 4e-4,1.8938 c 0,3.9935 -0.8563,6.3408 -4.8248,7.3292 v 0.0822 c 2.568,0.4942 4.7079,1.6882 4.7079,6.5879 l 4e-4,5.0641 h -8.6375 v -3.5824 c 0,-3.1288 -0.8559,-4.1583 -3.5404,-4.1583 h -13.5775 v 7.7407 h -8.6375 z m 8.6375,14.658 h 14.278 c 2.3345,0 3.1899,-0.988 3.1899,-3.1289 v -0.9884 c 0,-2.6355 -1.2447,-3.1288 -3.9685,-3.1288 l -13.4994,-5e-4 z m 27.5464,-14.658 h 8.6371 v 17.2104 c 0,3.7883 1.2835,5.2709 4.8243,5.2709 l 8.559,-4e-4 c 3.5403,0 4.8243,-1.4818 4.8243,-5.2701 v -17.2108 h 8.6371 v 19.1868 c 0,7.4114 -3.6185,10.953 -11.5551,10.953 h -12.3712 c -7.937,0 -11.5555,-3.5412 -11.5555,-10.9526 z" />
</svg>
